<svg version="1.1" id="Layer_1" xmlns="http://www.w3.org/2000/svg" xmlns:xlink="http://www.w3.org/1999/xlink" x="0px" y="0px"
	 viewBox="0 0 1080 1080" style="enable-background:new 0 0 1080 1080;" xml:space="preserve">
<style type="text/css">
	.st0{fill:#FFFFFF;}
	.st1{fill:#B800FF;}
	.st2{fill:#00F18C;}
	.st3{fill:#1C1C1C;stroke:#1C1C1C;stroke-width:1.83;}
	.st4{fill:none;stroke:#1C1C1C;stroke-width:5;}
</style>
<g>
	<g>
		<g>
			<path class="st0" d="M431.5,304.5c99.5,78.3,149.2,117.5,174.5,141c92.6,86,286,245.9,238,340.8c-19.6,38.7-52.4,87.7-61.2,88.8
				C674.3,888.9,635.9,769,391.3,543.9c-86.2-79.3-155.8-132.8-179-235"/>
			<path class="st1" d="M327.1,163.5h3.2c86.4,0,156.6,81.7,156.6,182.6v387.7c0,100.8-70,182.6-156.6,182.6h-3.2
				c-86.4,0-156.6-81.7-156.6-182.6V346.1C170.5,245.2,240.5,163.5,327.1,163.5z"/>
			<path class="st2" d="M744,163.5c89.3-1,164.2,81,165.5,182.6v387.7c-1.3,100.2-74.1,181.6-162.2,182.6
				c-89.3,1-164.2-81-165.5-182.6V346.1C583.1,246,656,164.3,744,163.5z"/>
			<circle class="st3" cx="333.7" cy="339.6" r="37.1"/>
			<circle class="st3" cx="746.4" cy="339.6" r="37.1"/>
			<circle class="st3" cx="333.7" cy="749.1" r="37.1"/>
			<circle class="st3" cx="743.2" cy="749.1" r="37.1"/>
			<line class="st4" x1="331.4" y1="745.8" x2="331.4" y2="338.5"/>
			<line class="st4" x1="334.8" y1="335.1" x2="744.3" y2="750.2"/>
			<path class="st4" d="M744.3,750.2l2.1-410.6"/>
		</g>
	</g>
</g>
</svg>
